# xmcd
#
# Track frame offsets:
#	150
#	21740
#	36563
#	53285
#	75742
#	89111
#	106898
#	119135
#
# Disc length: 1821 seconds
#
# Revision: 0
# Processed by: cddbd v1.4PL0 Copyright (c) Steve Scherf et al.
# Submitted via: dBpowerAMP V4.0
#
DISCID=6e071b08
DTITLE=Tuomio and Kone - EP
DYEAR=2003
DGENRE=Rap
TTITLE0=Tsekkaa skeidaa (Setä Koponen, Ässä)
TTITLE1=Loppupeliteoria (Kehäraakki)
TTITLE2=Sorbuksen herra
TTITLE3=Suomi-KP (Petos, Raimo, Dj Eri Didi)
TTITLE4=Joku koputtaa
TTITLE5=Semi-sekavat sessiot (Dj Sapeli)
TTITLE6=Viimenen peliminuutti
TTITLE7=Koiratarha radalla (Studiolasermix) (McTaakiBörsta)
EXTD=http://www.tuomio-kone.tk/
EXTT0=
EXTT1=
EXTT2=
EXTT3=
EXTT4=
EXTT5=
EXTT6=
EXTT7=
PLAYORDER=
